<svg id="Layer_1" data-name="Layer 1" xmlns="http://www.w3.org/2000/svg" viewBox="0 0 500 500"><defs><style>.cls-1{fill:#222;}</style></defs><path class="cls-1" d="M407.36,150V78.84a33,33,0,0,0-.13-3.62,11.5,11.5,0,0,0-18.42-8.4,53.87,53.87,0,0,0-5,4.17l-1.53,1.38L370.18,83.12l-2.81,2.5-3.86-3.06c-6.15-4.88-12-9.49-17.79-14.31-5.38-4.47-11.1-4.84-17-1.11-3.8,2.41-7.77,4.77-11.61,7-3.53,2.1-7.18,4.27-10.75,6.51-3.72-3-7.56-5.82-11.28-8.58-1.53-1.13-3.06-2.26-4.58-3.41-7.93-5.95-13.18-5.6-20,1.38-2.9,3-5.75,6-8.6,8.94l-.46.48-2.3-1.74c-4.5-3.38-8.74-6.58-13-9.76-6.81-5.07-12.49-4.64-18.44,1.38-3.09,3.13-6.13,6.3-9.19,9.49l-.56.58-2-1.5-13.16-9.89c-6.8-5.1-12.49-4.72-18.45,1.23-3.08,3.07-6.12,6.18-9.19,9.32l-.75.77L172.48,78l-13.15-9.84c-7.06-5.26-12.48-4.84-18.71,1.47-3,3.08-6,6.2-9.11,9.41l-.81.84L128,78c-5.71-3.85-11.09-7.49-16.73-10.91-3.17-1.91-8.45-2.88-12.41-1-4.27,2-6.2,7.66-6.2,11-.16,125-.15,234.29,0,334.25,0,6,3.1,11.62,4.94,14.44,5.6,8.6,14.87,9.7,22.33,9.7H382.54c16.42-.25,25-13.21,25-25.87C407.33,323.09,407.34,235.11,407.36,150Z"/></svg>