<svg id="Layer_1" data-name="Layer 1" xmlns="http://www.w3.org/2000/svg" viewBox="0 0 500 500"><defs><style>.cls-1{fill:#222;}</style></defs><g id="ObAcPu.tif"><g id="hb1bqU.tif"><path class="cls-1" d="M412.82,181.78c-.44,38.71-10.12,71.43-23.81,103.12-22,51-52.29,97-86.75,140.26-12.88,16.19-26.63,31.7-40.3,47.23-6.78,7.71-17.31,7.75-24.16.22-51.32-56.41-96.19-117.22-127.09-187.47C99.63,260,90.9,233.94,88.2,206.49c-6.35-64.6,16.85-116.56,69.21-154.94a150.75,150.75,0,0,1,92.25-29.76c48.45.54,89.42,19.41,121.72,55.76C398.66,108.25,411.94,144.59,412.82,181.78Zm-163-62.18a65.17,65.17,0,0,0-65.29,65c0,35.77,29.45,65.19,65.27,65.19a65.1,65.1,0,1,0,0-130.2Z"/></g></g></svg>