<svg id="Layer_1" data-name="Layer 1" xmlns="http://www.w3.org/2000/svg" viewBox="0 0 500 500"><defs><style>.cls-1{fill:#222;}</style></defs><g id="_3uu9CW.tif" data-name="3uu9CW.tif"><path class="cls-1" d="M438.49,267.55v12.67q0,76.57,0,153.15c0,29.75-17.16,47.17-47,47.55-13.33.17-26.67.25-40,0-20.09-.43-31.14-11.83-31.16-31.88-.05-37.39,0-74.78,0-112.18,0-21.27-12.73-35.34-33.82-35.87Q250,300,213.36,301c-21.06.56-33.69,14.66-33.71,36q0,56.09,0,112.18c0,19.59-10.92,31.24-30.31,31.68-15.92.37-31.88.46-47.78-.26-23.83-1.08-40.81-19.48-40.83-43.48q-.07-79,0-158v-11.5c-5.35,0-9.8,0-14.25,0-12,.13-21.8-3.62-26.82-15.4-5.13-12-.08-21.32,8.3-29.69q83.15-83.08,166.25-166.22C201.77,48.66,209.31,41,217,33.5c19.64-19.36,46.48-19.53,66-.11q94.6,94.39,189,189c8.36,8.35,13.55,17.58,8.49,29.65-5.16,12.27-15.36,15.84-27.68,15.57C448.57,267.47,444.37,267.55,438.49,267.55Z"/></g></svg>